{"glyphs":{"0":{"ha":1085,"x_min":68,"x_max":1017,"o":"m 543 814 q 303 714 402 814 q 203 475 203 615 q 303 235 203 334 q 543 136 402 136 q 782 235 683 136 q 882 475 882 334 q 782 714 882 615 q 543 814 683 814 m 543 0 q 207 139 346 0 q 68 475 68 278 q 207 810 68 671 q 543 949 346 949 q 878 810 739 949 q 1017 475 1017 671 q 878 139 1017 278 q 543 0 739 0 z "},"1":{"ha":407,"x_min":68,"x_max":339,"o":"m 339 0 l 203 0 l 203 814 l 68 814 l 68 949 l 339 949 l 339 0 z "},"2":{"ha":610,"x_min":34,"x_max":543,"o":"m 271 814 l 68 814 l 68 949 l 271 949 q 463 870 384 949 q 543 678 543 791 q 273 136 543 583 l 543 136 l 543 0 l 34 0 q 407 678 407 610 q 367 774 407 734 q 271 814 328 814 z "},"3":{"ha":678,"x_min":68,"x_max":610,"o":"m 271 0 l 68 0 l 68 136 l 271 136 q 415 195 355 136 q 475 339 475 255 q 415 483 475 423 q 271 543 355 543 l 79 543 l 273 814 l 68 814 l 68 949 l 536 949 l 338 672 q 511 579 436 654 q 610 339 610 479 q 511 99 610 199 q 271 0 412 0 z "},"4":{"ha":678,"x_min":41,"x_max":610,"o":"m 41 203 l 176 949 l 312 949 l 201 339 l 407 339 l 407 678 l 543 678 l 543 339 l 610 339 l 610 203 l 543 203 l 543 0 l 407 0 l 407 203 l 41 203 z "},"5":{"ha":678,"x_min":68,"x_max":610,"o":"m 339 0 q 147 79 227 0 q 68 271 68 159 l 203 271 q 243 175 203 215 q 339 136 283 136 q 435 175 395 136 q 475 271 475 215 l 475 407 q 435 503 475 463 q 339 543 395 543 q 243 503 283 543 q 203 407 203 463 l 68 407 l 68 949 l 475 949 l 475 814 l 203 814 l 203 643 q 339 678 264 678 q 531 599 452 678 q 610 407 610 519 l 610 271 q 531 79 610 159 q 339 0 452 0 z "},"6":{"ha":678,"x_min":68,"x_max":610,"o":"m 339 136 q 435 175 395 136 q 475 271 475 215 l 475 339 q 435 435 475 395 q 339 475 395 475 q 243 435 283 475 q 203 340 203 395 l 203 271 q 243 175 203 215 q 339 136 283 136 m 339 949 l 475 949 l 475 814 l 339 814 q 243 774 283 814 q 203 678 203 734 l 203 575 q 339 610 264 610 q 531 531 452 610 q 610 339 610 452 l 610 271 q 531 79 610 159 q 339 0 452 0 q 147 79 227 0 q 68 271 68 159 l 68 678 q 147 870 68 791 q 339 949 227 949 z "},"7":{"ha":678,"x_min":31,"x_max":648,"o":"m 430 814 l 68 814 l 68 949 l 648 949 l 448 543 l 543 543 l 543 407 l 381 407 l 182 0 l 31 0 l 230 407 l 136 407 l 136 543 l 297 543 l 430 814 z "},"8":{"ha":814,"x_min":68,"x_max":746,"o":"m 407 543 q 263 483 323 543 q 203 339 203 423 q 263 195 203 255 q 407 136 323 136 q 551 195 491 136 q 610 339 610 255 q 551 483 610 423 q 407 543 491 543 m 407 814 q 359 794 379 814 q 339 746 339 774 q 359 698 339 718 q 407 678 379 678 q 455 698 435 678 q 475 746 475 718 q 455 794 475 774 q 407 814 435 814 m 576 633 q 647 579 614 612 q 746 339 746 479 q 647 99 746 199 q 407 0 547 0 q 167 99 267 0 q 68 339 68 199 q 168 579 68 479 q 237 633 200 612 q 203 746 203 683 q 263 890 203 830 q 407 949 323 949 q 551 890 491 949 q 610 746 610 830 q 576 633 610 683 z "},"9":{"ha":678,"x_min":68,"x_max":610,"o":"m 475 678 q 435 774 475 734 q 339 814 395 814 q 243 774 283 814 q 203 678 203 734 q 243 582 203 622 q 339 543 283 543 q 435 582 395 543 q 475 678 475 622 m 339 949 q 531 870 452 949 q 610 678 610 791 q 258 0 610 570 l 102 0 q 343 407 254 248 l 339 407 q 147 486 227 407 q 68 678 68 566 q 147 870 68 791 q 339 949 227 949 z "},"\u0000":{"ha":0,"x_min":0,"x_max":0,"o":""},"\u001d":{"ha":0,"x_min":0,"x_max":0,"o":""}," ":{"ha":271,"x_min":0,"x_max":0,"o":""}," ":{"ha":271,"x_min":0,"x_max":0,"o":""},"!":{"ha":271,"x_min":68,"x_max":203,"o":"m 203 0 l 68 0 l 68 136 l 203 136 l 203 0 m 203 271 l 68 271 l 68 949 l 203 949 l 203 271 z "},"\"":{"ha":475,"x_min":68,"x_max":407,"o":"m 203 678 l 68 678 l 68 949 l 203 949 l 203 678 m 407 678 l 271 678 l 271 949 l 407 949 l 407 678 z "},"#":{"ha":814,"x_min":68,"x_max":746,"o":"m 203 339 l 203 610 l 68 610 l 68 746 l 203 746 l 203 949 l 339 949 l 339 746 l 475 746 l 475 949 l 610 949 l 610 746 l 746 746 l 746 610 l 610 610 l 610 339 l 746 339 l 746 203 l 610 203 l 610 0 l 475 0 l 475 203 l 339 203 l 339 0 l 203 0 l 203 203 l 68 203 l 68 339 l 203 339 m 339 610 l 339 339 l 475 339 l 475 610 l 339 610 z "},"$":{"ha":610,"x_min":68,"x_max":543,"o":"m 237 930 l 237 1085 l 373 1085 l 373 949 l 543 949 l 543 814 l 339 814 q 243 774 283 814 q 203 678 203 734 q 373 509 203 610 q 543 271 543 407 q 463 79 543 159 q 373 19 422 39 l 373 -136 l 237 -136 l 237 0 l 68 0 l 68 136 l 271 136 q 367 175 328 136 q 407 271 407 215 q 237 441 407 339 q 68 678 68 543 q 147 870 68 791 q 237 930 188 911 z "},"%":{"ha":678,"x_min":31,"x_max":648,"o":"m 237 746 q 261 756 252 746 q 271 780 271 766 q 261 804 271 794 q 237 814 252 814 q 213 804 223 814 q 203 780 203 794 q 213 756 203 766 q 237 746 223 746 m 441 136 q 465 145 455 136 q 475 170 475 155 q 465 194 475 184 q 441 203 455 203 q 417 194 427 203 q 407 170 407 184 q 417 145 407 155 q 441 136 427 136 m 351 654 q 237 610 304 610 q 117 660 167 610 q 68 780 68 709 q 117 900 68 850 q 237 949 167 949 q 357 900 308 949 q 407 780 407 850 q 406 766 407 773 l 496 949 l 648 949 l 327 295 q 441 339 374 339 q 561 290 511 339 q 610 170 610 240 q 561 50 610 99 q 441 0 511 0 q 321 50 370 0 q 271 170 271 99 q 272 183 271 176 l 182 0 l 31 0 l 351 654 z "},"&":{"ha":882,"x_min":68,"x_max":814,"o":"m 407 814 q 359 794 379 814 q 339 746 339 774 q 359 698 339 718 q 407 678 379 678 l 407 543 q 263 483 323 543 q 203 339 203 423 q 263 195 203 255 q 407 136 323 136 q 551 195 491 136 q 610 339 610 255 l 610 543 l 475 543 l 475 678 l 610 678 l 610 814 l 746 814 l 746 678 l 814 678 l 814 543 l 746 543 l 746 339 q 647 99 746 199 q 407 0 547 0 q 167 99 267 0 q 68 339 68 199 q 168 579 68 479 q 237 633 200 612 q 203 746 203 683 q 263 890 203 830 q 407 949 323 949 l 475 949 l 475 814 l 407 814 z "},"'":{"ha":271,"x_min":68,"x_max":203,"o":"m 203 678 l 68 678 l 68 949 l 203 949 l 203 678 z "},"(":{"ha":475,"x_min":68,"x_max":407,"o":"m 339 1017 l 407 1017 l 407 882 l 339 882 q 243 842 283 882 q 203 746 203 802 l 203 203 q 243 107 203 147 q 339 68 283 68 l 407 68 l 407 -68 l 339 -68 q 147 12 227 -68 q 68 203 68 91 l 68 746 q 147 938 68 859 q 339 1017 227 1017 z "},")":{"ha":475,"x_min":68,"x_max":407,"o":"m 136 -68 l 68 -68 l 68 68 l 136 68 q 232 107 192 68 q 271 203 271 147 l 271 746 q 232 842 271 802 q 136 882 192 882 l 68 882 l 68 1017 l 136 1017 q 328 938 248 1017 q 407 746 407 859 l 407 203 q 328 12 407 91 q 136 -68 248 -68 z "},"*":{"ha":543,"x_min":61,"x_max":481,"o":"m 339 628 l 339 543 l 203 543 l 203 628 l 129 585 l 61 703 l 135 746 l 61 789 l 129 907 l 203 864 l 203 949 l 339 949 l 339 864 l 414 907 l 481 789 l 408 746 l 481 703 l 414 585 l 339 628 z "},"+":{"ha":543,"x_min":68,"x_max":475,"o":"m 339 543 l 475 543 l 475 407 l 339 407 l 339 271 l 203 271 l 203 407 l 68 407 l 68 543 l 203 543 l 203 678 l 339 678 l 339 543 z "},",":{"ha":271,"x_min":68,"x_max":203,"o":"m 203 -136 l 68 -136 l 68 136 l 203 136 l 203 -136 z "},"-":{"ha":543,"x_min":68,"x_max":475,"o":"m 475 407 l 68 407 l 68 543 l 475 543 l 475 407 z "},"­":{"ha":543,"x_min":68,"x_max":475,"o":"m 475 407 l 68 407 l 68 543 l 475 543 l 475 407 z "},".":{"ha":271,"x_min":68,"x_max":203,"o":"m 203 0 l 68 0 l 68 136 l 203 136 l 203 0 z "},"/":{"ha":678,"x_min":31,"x_max":648,"o":"m 648 949 l 182 0 l 31 0 l 496 949 l 648 949 z "},":":{"ha":271,"x_min":68,"x_max":203,"o":"m 203 0 l 68 0 l 68 136 l 203 136 l 203 0 m 203 559 l 68 559 l 68 694 l 203 694 l 203 559 z "},";":{"ha":271,"x_min":68,"x_max":203,"o":"m 203 -136 l 68 -136 l 68 136 l 203 136 l 203 -136 m 203 559 l 68 559 l 68 694 l 203 694 l 203 559 z "},";":{"ha":271,"x_min":68,"x_max":203,"o":"m 203 -136 l 68 -136 l 68 136 l 203 136 l 203 -136 m 203 559 l 68 559 l 68 694 l 203 694 l 203 559 z "},"<":{"ha":610,"x_min":68,"x_max":543,"o":"m 543 170 l 68 403 l 68 553 l 543 787 l 543 635 l 222 478 l 543 321 l 543 170 z "},"=":{"ha":543,"x_min":68,"x_max":475,"o":"m 475 271 l 68 271 l 68 407 l 475 407 l 475 271 m 475 543 l 68 543 l 68 678 l 475 678 l 475 543 z "},">":{"ha":610,"x_min":68,"x_max":543,"o":"m 68 170 l 68 321 l 389 478 l 68 635 l 68 787 l 543 553 l 543 403 l 68 170 z "},"?":{"ha":678,"x_min":68,"x_max":610,"o":"m 271 814 l 68 814 l 68 949 l 271 949 q 511 850 412 949 q 610 610 610 751 q 511 371 610 470 q 271 271 412 271 l 68 271 l 68 407 l 271 407 q 415 467 355 407 q 475 610 475 526 q 415 754 475 694 q 271 814 355 814 m 203 0 l 68 0 l 68 136 l 203 136 l 203 0 z "},"@":{"ha":1085,"x_min":68,"x_max":1017,"o":"m 543 608 l 441 300 q 644 300 543 362 l 543 608 m 422 157 q 543 136 478 136 q 663 157 607 136 q 543 239 610 239 q 422 157 475 239 m 475 808 q 303 715 377 789 q 203 475 203 615 q 296 242 203 339 l 475 808 m 789 242 q 882 475 882 339 q 783 715 882 615 q 610 808 708 789 l 789 242 m 543 0 q 207 139 346 0 q 68 475 68 278 q 207 810 68 671 q 543 949 346 949 q 878 810 739 949 q 1017 475 1017 671 q 878 139 1017 278 q 543 0 739 0 z "},"A":{"ha":678,"x_min":34,"x_max":644,"o":"m 34 0 l 305 949 l 373 949 l 644 0 l 509 0 q 339 203 441 203 q 170 0 237 203 l 34 0 m 339 610 l 237 271 q 441 271 339 339 l 339 610 z "},"B":{"ha":678,"x_min":68,"x_max":610,"o":"m 203 407 l 271 407 q 415 467 355 407 q 475 610 475 526 q 415 754 475 694 q 271 814 355 814 l 203 814 l 203 407 m 68 949 l 271 949 q 511 850 412 949 q 610 610 610 751 q 511 371 610 470 q 441 316 478 338 q 475 203 475 267 q 415 60 475 119 q 271 0 355 0 l 68 0 l 68 949 m 203 271 l 203 136 l 271 136 q 319 156 299 136 q 339 203 339 176 q 319 251 339 231 q 271 271 299 271 l 203 271 z "},"C":{"ha":678,"x_min":68,"x_max":610,"o":"m 543 949 l 610 949 l 610 814 l 543 814 q 303 714 402 814 q 203 475 203 615 q 303 235 203 334 q 543 136 402 136 l 610 136 l 610 0 l 543 0 q 207 139 346 0 q 68 475 68 278 q 207 810 68 671 q 543 949 346 949 z "},"D":{"ha":746,"x_min":68,"x_max":678,"o":"m 203 949 q 539 810 400 949 q 678 475 678 671 q 539 139 678 278 q 203 0 400 0 l 68 0 l 68 949 l 203 949 m 203 136 q 443 235 344 136 q 543 475 543 334 q 443 714 543 615 q 203 814 344 814 l 203 136 z "},"E":{"ha":610,"x_min":68,"x_max":543,"o":"m 543 949 l 543 814 l 203 814 l 203 543 l 475 543 l 475 407 l 203 407 l 203 136 l 543 136 l 543 0 l 68 0 l 68 949 l 543 949 z "},"F":{"ha":610,"x_min":68,"x_max":543,"o":"m 203 407 l 203 0 l 68 0 l 68 949 l 543 949 l 543 814 l 203 814 l 203 543 l 475 543 l 475 407 l 203 407 z "},"G":{"ha":746,"x_min":68,"x_max":678,"o":"m 543 949 l 678 949 l 678 814 l 543 814 q 303 714 402 814 q 203 475 203 615 q 303 235 203 334 q 543 136 402 136 l 543 543 l 678 543 l 678 0 l 543 0 q 207 139 346 0 q 68 475 68 278 q 207 810 68 671 q 543 949 346 949 z "},"H":{"ha":678,"x_min":68,"x_max":610,"o":"m 203 407 l 203 0 l 68 0 l 68 949 l 203 949 l 203 543 l 475 543 l 475 949 l 610 949 l 610 0 l 475 0 l 475 407 l 203 407 z "},"I":{"ha":543,"x_min":68,"x_max":475,"o":"m 475 949 l 475 814 l 339 814 l 339 136 l 475 136 l 475 0 l 68 0 l 68 136 l 203 136 l 203 814 l 68 814 l 68 949 l 475 949 z "},"J":{"ha":475,"x_min":68,"x_max":407,"o":"m 271 271 l 271 949 l 407 949 l 407 271 q 328 79 407 159 q 136 0 248 0 l 68 0 l 68 136 l 136 136 q 232 175 192 136 q 271 271 271 215 z "},"K":{"ha":678,"x_min":68,"x_max":637,"o":"m 203 197 l 203 0 l 68 0 l 68 949 l 203 949 l 203 470 l 206 475 l 480 949 l 637 949 l 363 475 l 637 0 l 480 0 l 285 338 l 203 197 z "},"L":{"ha":610,"x_min":68,"x_max":543,"o":"m 68 949 l 203 949 l 203 136 l 543 136 l 543 0 l 68 0 l 68 949 z "},"M":{"ha":747,"x_min":64,"x_max":682,"o":"m 68 943 l 64 949 l 216 949 l 373 629 l 530 949 l 682 949 l 678 943 l 678 0 l 543 0 l 543 666 l 373 321 l 203 666 l 203 0 l 68 0 l 68 943 z "},"N":{"ha":678,"x_min":68,"x_max":610,"o":"m 68 0 l 68 949 l 136 949 l 475 407 l 475 949 l 610 949 l 610 0 l 543 0 l 203 543 l 203 0 l 68 0 z "},"O":{"ha":1085,"x_min":68,"x_max":1017,"o":"m 543 814 q 303 714 402 814 q 203 475 203 615 q 303 235 203 334 q 543 136 402 136 q 782 235 683 136 q 882 475 882 334 q 782 714 882 615 q 543 814 683 814 m 543 0 q 207 139 346 0 q 68 475 68 278 q 207 810 68 671 q 543 949 346 949 q 878 810 739 949 q 1017 475 1017 671 q 878 139 1017 278 q 543 0 739 0 z "},"P":{"ha":678,"x_min":68,"x_max":610,"o":"m 203 339 l 237 339 q 405 409 336 339 q 475 576 475 478 q 405 744 475 675 q 237 814 336 814 l 203 814 l 203 339 m 203 203 l 203 0 l 68 0 l 68 949 l 237 949 q 501 840 392 949 q 610 576 610 731 q 501 313 610 422 q 237 203 392 203 l 203 203 z "},"Q":{"ha":1085,"x_min":68,"x_max":1017,"o":"m 543 0 q 207 139 346 0 q 68 475 68 278 q 207 810 68 671 q 543 949 346 949 q 878 810 739 949 q 1017 475 1017 671 q 923 191 1017 313 l 1017 96 l 921 0 l 827 94 q 543 0 704 0 m 543 814 q 303 714 402 814 q 203 475 203 615 q 303 235 203 334 q 543 136 402 136 q 730 191 648 136 l 633 288 l 730 384 l 826 288 q 882 475 882 370 q 782 714 882 615 q 543 814 683 814 z "},"R":{"ha":678,"x_min":68,"x_max":610,"o":"m 203 339 l 237 339 q 405 409 336 339 q 475 576 475 478 q 405 744 475 675 q 237 814 336 814 l 203 814 l 203 339 m 454 272 l 563 0 l 407 0 l 322 212 q 237 203 281 203 l 203 203 l 203 0 l 68 0 l 68 949 l 237 949 q 501 840 392 949 q 610 576 610 731 q 501 313 610 422 q 454 272 479 290 z "},"S":{"ha":610,"x_min":68,"x_max":543,"o":"m 339 949 l 543 949 l 543 814 l 339 814 q 243 774 283 814 q 203 678 203 734 q 373 509 203 610 q 543 271 543 407 q 463 79 543 159 q 271 0 384 0 l 68 0 l 68 136 l 271 136 q 367 175 328 136 q 407 271 407 215 q 237 441 407 339 q 68 678 68 543 q 147 870 68 791 q 339 949 227 949 z "},"T":{"ha":610,"x_min":68,"x_max":543,"o":"m 373 814 l 373 0 l 237 0 l 237 814 l 68 814 l 68 949 l 543 949 l 543 814 l 373 814 z "},"U":{"ha":678,"x_min":68,"x_max":610,"o":"m 68 271 l 68 949 l 203 949 l 203 271 q 243 175 203 215 q 339 136 283 136 q 435 175 395 136 q 475 271 475 215 l 475 949 l 610 949 l 610 271 q 531 79 610 159 q 339 0 452 0 q 147 79 227 0 q 68 271 68 159 z "},"V":{"ha":678,"x_min":34,"x_max":644,"o":"m 509 949 l 644 949 l 373 0 l 305 0 l 34 949 l 170 949 l 339 339 l 509 949 z "},"W":{"ha":949,"x_min":34,"x_max":916,"o":"m 475 827 l 509 949 l 644 949 l 541 589 l 610 339 l 780 949 l 916 949 l 644 0 l 576 0 l 475 356 l 373 0 l 305 0 l 34 949 l 170 949 l 339 339 l 408 589 l 305 949 l 441 949 l 475 827 z "},"X":{"ha":678,"x_min":31,"x_max":648,"o":"m 648 949 l 414 475 l 648 0 l 496 0 l 339 321 l 182 0 l 31 0 l 264 475 l 31 949 l 182 949 l 339 629 l 496 949 l 648 949 z "},"Y":{"ha":678,"x_min":31,"x_max":648,"o":"m 271 459 l 31 949 l 182 949 l 339 629 l 496 949 l 648 949 l 407 459 l 407 0 l 271 0 l 271 459 z "},"Z":{"ha":678,"x_min":31,"x_max":648,"o":"m 430 814 l 68 814 l 68 949 l 648 949 l 248 136 l 610 136 l 610 0 l 31 0 l 430 814 z "},"[":{"ha":475,"x_min":68,"x_max":407,"o":"m 407 1017 l 407 882 l 203 882 l 203 68 l 407 68 l 407 -68 l 68 -68 l 68 1017 l 407 1017 z "},"\\":{"ha":678,"x_min":31,"x_max":648,"o":"m 648 0 l 496 0 l 31 949 l 182 949 l 648 0 z "},"]":{"ha":475,"x_min":68,"x_max":407,"o":"m 68 -68 l 68 68 l 271 68 l 271 882 l 68 882 l 68 1017 l 407 1017 l 407 -68 l 68 -68 z "},"^":{"ha":610,"x_min":68,"x_max":543,"o":"m 407 949 l 543 678 l 380 678 l 305 854 l 231 678 l 68 678 l 203 949 l 407 949 z "},"_":{"ha":610,"x_min":68,"x_max":543,"o":"m 543 0 l 68 0 l 68 136 l 543 136 l 543 0 z "},"`":{"ha":475,"x_min":68,"x_max":407,"o":"m 407 678 l 264 678 l 68 949 l 258 949 l 407 678 z "},"a":{"ha":678,"x_min":34,"x_max":644,"o":"m 34 0 l 305 949 l 373 949 l 644 0 l 509 0 q 339 203 441 203 q 170 0 237 203 l 34 0 m 339 610 l 237 271 q 441 271 339 339 l 339 610 z "},"b":{"ha":678,"x_min":68,"x_max":610,"o":"m 203 407 l 271 407 q 415 467 355 407 q 475 610 475 526 q 415 754 475 694 q 271 814 355 814 l 203 814 l 203 407 m 68 949 l 271 949 q 511 850 412 949 q 610 610 610 751 q 511 371 610 470 q 441 316 478 338 q 475 203 475 267 q 415 60 475 119 q 271 0 355 0 l 68 0 l 68 949 m 203 271 l 203 136 l 271 136 q 319 156 299 136 q 339 203 339 176 q 319 251 339 231 q 271 271 299 271 l 203 271 z "},"c":{"ha":678,"x_min":68,"x_max":610,"o":"m 543 949 l 610 949 l 610 814 l 543 814 q 303 714 402 814 q 203 475 203 615 q 303 235 203 334 q 543 136 402 136 l 610 136 l 610 0 l 543 0 q 207 139 346 0 q 68 475 68 278 q 207 810 68 671 q 543 949 346 949 z "},"d":{"ha":746,"x_min":68,"x_max":678,"o":"m 203 949 q 539 810 400 949 q 678 475 678 671 q 539 139 678 278 q 203 0 400 0 l 68 0 l 68 949 l 203 949 m 203 136 q 443 235 344 136 q 543 475 543 334 q 443 714 543 615 q 203 814 344 814 l 203 136 z "},"e":{"ha":610,"x_min":68,"x_max":543,"o":"m 543 949 l 543 814 l 203 814 l 203 543 l 475 543 l 475 407 l 203 407 l 203 136 l 543 136 l 543 0 l 68 0 l 68 949 l 543 949 z "},"f":{"ha":610,"x_min":68,"x_max":543,"o":"m 203 407 l 203 0 l 68 0 l 68 949 l 543 949 l 543 814 l 203 814 l 203 543 l 475 543 l 475 407 l 203 407 z "},"g":{"ha":746,"x_min":68,"x_max":678,"o":"m 543 949 l 678 949 l 678 814 l 543 814 q 303 714 402 814 q 203 475 203 615 q 303 235 203 334 q 543 136 402 136 l 543 543 l 678 543 l 678 0 l 543 0 q 207 139 346 0 q 68 475 68 278 q 207 810 68 671 q 543 949 346 949 z "},"h":{"ha":678,"x_min":68,"x_max":610,"o":"m 203 407 l 203 0 l 68 0 l 68 949 l 203 949 l 203 543 l 475 543 l 475 949 l 610 949 l 610 0 l 475 0 l 475 407 l 203 407 z "},"i":{"ha":543,"x_min":68,"x_max":475,"o":"m 475 949 l 475 814 l 339 814 l 339 136 l 475 136 l 475 0 l 68 0 l 68 136 l 203 136 l 203 814 l 68 814 l 68 949 l 475 949 z "},"j":{"ha":475,"x_min":68,"x_max":407,"o":"m 271 271 l 271 949 l 407 949 l 407 271 q 328 79 407 159 q 136 0 248 0 l 68 0 l 68 136 l 136 136 q 232 175 192 136 q 271 271 271 215 z "},"k":{"ha":678,"x_min":68,"x_max":637,"o":"m 203 197 l 203 0 l 68 0 l 68 949 l 203 949 l 203 470 l 206 475 l 480 949 l 637 949 l 363 475 l 637 0 l 480 0 l 285 338 l 203 197 z "},"l":{"ha":610,"x_min":68,"x_max":543,"o":"m 68 949 l 203 949 l 203 136 l 543 136 l 543 0 l 68 0 l 68 949 z "},"m":{"ha":747,"x_min":64,"x_max":682,"o":"m 68 943 l 64 949 l 216 949 l 373 629 l 530 949 l 682 949 l 678 943 l 678 0 l 543 0 l 543 666 l 373 321 l 203 666 l 203 0 l 68 0 l 68 943 z "},"n":{"ha":678,"x_min":68,"x_max":610,"o":"m 68 0 l 68 949 l 136 949 l 475 407 l 475 949 l 610 949 l 610 0 l 543 0 l 203 543 l 203 0 l 68 0 z "},"o":{"ha":1085,"x_min":68,"x_max":1017,"o":"m 543 814 q 303 714 402 814 q 203 475 203 615 q 303 235 203 334 q 543 136 402 136 q 782 235 683 136 q 882 475 882 334 q 782 714 882 615 q 543 814 683 814 m 543 0 q 207 139 346 0 q 68 475 68 278 q 207 810 68 671 q 543 949 346 949 q 878 810 739 949 q 1017 475 1017 671 q 878 139 1017 278 q 543 0 739 0 z "},"p":{"ha":678,"x_min":68,"x_max":610,"o":"m 203 339 l 237 339 q 405 409 336 339 q 475 576 475 478 q 405 744 475 675 q 237 814 336 814 l 203 814 l 203 339 m 203 203 l 203 0 l 68 0 l 68 949 l 237 949 q 501 840 392 949 q 610 576 610 731 q 501 313 610 422 q 237 203 392 203 l 203 203 z "},"q":{"ha":1085,"x_min":68,"x_max":1017,"o":"m 543 0 q 207 139 346 0 q 68 475 68 278 q 207 810 68 671 q 543 949 346 949 q 878 810 739 949 q 1017 475 1017 671 q 923 191 1017 313 l 1017 96 l 921 0 l 827 94 q 543 0 704 0 m 543 814 q 303 714 402 814 q 203 475 203 615 q 303 235 203 334 q 543 136 402 136 q 730 191 648 136 l 633 288 l 730 384 l 826 288 q 882 475 882 370 q 782 714 882 615 q 543 814 683 814 z "},"r":{"ha":678,"x_min":68,"x_max":610,"o":"m 203 339 l 237 339 q 405 409 336 339 q 475 576 475 478 q 405 744 475 675 q 237 814 336 814 l 203 814 l 203 339 m 454 272 l 563 0 l 407 0 l 322 212 q 237 203 281 203 l 203 203 l 203 0 l 68 0 l 68 949 l 237 949 q 501 840 392 949 q 610 576 610 731 q 501 313 610 422 q 454 272 479 290 z "},"s":{"ha":610,"x_min":68,"x_max":543,"o":"m 339 949 l 543 949 l 543 814 l 339 814 q 243 774 283 814 q 203 678 203 734 q 373 509 203 610 q 543 271 543 407 q 463 79 543 159 q 271 0 384 0 l 68 0 l 68 136 l 271 136 q 367 175 328 136 q 407 271 407 215 q 237 441 407 339 q 68 678 68 543 q 147 870 68 791 q 339 949 227 949 z "},"t":{"ha":610,"x_min":68,"x_max":543,"o":"m 373 814 l 373 0 l 237 0 l 237 814 l 68 814 l 68 949 l 543 949 l 543 814 l 373 814 z "},"u":{"ha":678,"x_min":68,"x_max":610,"o":"m 68 271 l 68 949 l 203 949 l 203 271 q 243 175 203 215 q 339 136 283 136 q 435 175 395 136 q 475 271 475 215 l 475 949 l 610 949 l 610 271 q 531 79 610 159 q 339 0 452 0 q 147 79 227 0 q 68 271 68 159 z "},"v":{"ha":678,"x_min":34,"x_max":644,"o":"m 509 949 l 644 949 l 373 0 l 305 0 l 34 949 l 170 949 l 339 339 l 509 949 z "},"w":{"ha":949,"x_min":34,"x_max":916,"o":"m 475 827 l 509 949 l 644 949 l 541 589 l 610 339 l 780 949 l 916 949 l 644 0 l 576 0 l 475 356 l 373 0 l 305 0 l 34 949 l 170 949 l 339 339 l 408 589 l 305 949 l 441 949 l 475 827 z "},"x":{"ha":678,"x_min":31,"x_max":648,"o":"m 648 949 l 414 475 l 648 0 l 496 0 l 339 321 l 182 0 l 31 0 l 264 475 l 31 949 l 182 949 l 339 629 l 496 949 l 648 949 z "},"y":{"ha":678,"x_min":31,"x_max":648,"o":"m 271 459 l 31 949 l 182 949 l 339 629 l 496 949 l 648 949 l 407 459 l 407 0 l 271 0 l 271 459 z "},"z":{"ha":678,"x_min":31,"x_max":648,"o":"m 430 814 l 68 814 l 68 949 l 648 949 l 248 136 l 610 136 l 610 0 l 31 0 l 430 814 z "},"{":{"ha":610,"x_min":68,"x_max":543,"o":"m 475 1017 l 543 1017 l 543 882 l 475 882 q 379 842 418 882 q 339 746 339 802 l 339 678 q 260 486 339 566 q 248 475 254 480 q 260 463 254 469 q 339 271 339 384 l 339 203 q 379 107 339 147 q 475 68 418 68 l 543 68 l 543 -68 l 475 -68 q 283 12 362 -68 q 203 203 203 91 l 203 271 q 164 367 203 328 q 68 407 124 407 l 68 543 q 164 582 124 543 q 203 678 203 622 l 203 746 q 283 938 203 859 q 475 1017 362 1017 z "},"|":{"ha":271,"x_min":68,"x_max":203,"o":"m 203 -68 l 68 -68 l 68 1017 l 203 1017 l 203 -68 z "},"}":{"ha":610,"x_min":68,"x_max":543,"o":"m 136 -68 l 68 -68 l 68 68 l 136 68 q 232 107 192 68 q 271 203 271 147 l 271 271 q 351 463 271 384 q 363 475 357 469 q 351 486 357 480 q 271 678 271 566 l 271 746 q 232 842 271 802 q 136 882 192 882 l 68 882 l 68 1017 l 136 1017 q 328 938 248 1017 q 407 746 407 859 l 407 678 q 447 582 407 622 q 543 543 486 543 l 543 407 q 447 367 486 407 q 407 271 407 328 l 407 203 q 328 12 407 91 q 136 -68 248 -68 z "},"~":{"ha":678,"x_min":68,"x_max":610,"o":"m 237 448 q 190 339 190 448 l 68 339 q 237 610 68 610 q 339 556 278 610 q 441 502 400 502 q 488 610 488 502 l 610 610 q 441 339 610 339 q 339 393 400 339 q 237 448 278 448 z "},"¡":{"ha":271,"x_min":68,"x_max":203,"o":"m 68 694 l 203 694 l 203 559 l 68 559 l 68 694 m 68 423 l 203 423 l 203 -255 l 68 -255 l 68 423 z "},"¢":{"ha":678,"x_min":68,"x_max":610,"o":"m 339 733 l 339 882 l 475 882 l 475 746 l 610 746 l 610 610 l 441 610 q 273 541 342 610 q 203 373 203 471 q 273 205 203 275 q 441 136 342 136 l 610 136 l 610 0 l 475 0 l 475 -136 l 339 -136 l 339 13 q 177 109 248 38 q 68 373 68 218 q 177 637 68 528 q 339 733 248 708 z "},"£":{"ha":610,"x_min":68,"x_max":543,"o":"m 407 949 l 543 949 l 543 814 l 407 814 q 311 774 351 814 q 271 678 271 734 q 281 543 271 652 l 475 543 l 475 407 l 295 407 q 324 136 307 294 l 543 136 l 543 0 l 68 0 l 68 136 l 189 136 q 159 407 171 294 l 68 407 l 68 543 l 146 543 q 136 678 136 652 q 215 870 136 791 q 407 949 294 949 z "},"¤":{"ha":746,"x_min":37,"x_max":709,"o":"m 373 339 q 469 379 429 339 q 509 475 509 418 q 469 571 509 531 q 373 610 429 610 q 277 571 317 610 q 237 475 237 531 q 277 379 237 418 q 373 339 317 339 m 235 241 l 133 139 l 37 235 l 139 336 q 102 475 102 398 q 139 613 102 551 l 37 715 l 133 810 l 235 709 q 373 746 296 746 q 511 709 450 746 l 613 810 l 709 715 l 607 613 q 644 475 644 551 q 607 336 644 398 l 709 235 l 613 139 l 511 241 q 373 203 450 203 q 235 241 296 203 z "},"¥":{"ha":677,"x_min":31,"x_max":648,"o":"m 271 459 l 31 949 l 182 949 l 339 629 l 496 949 l 648 949 l 407 459 l 407 407 l 543 407 l 543 271 l 407 271 l 407 203 l 543 203 l 543 68 l 407 68 l 407 0 l 271 0 l 271 68 l 136 68 l 136 203 l 271 203 l 271 271 l 136 271 l 136 407 l 271 407 l 271 459 z "},"¦":{"ha":271,"x_min":68,"x_max":203,"o":"m 203 407 l 203 -68 l 68 -68 l 68 407 l 203 407 m 68 543 l 68 1017 l 203 1017 l 203 543 l 68 543 z "},"§":{"ha":610,"x_min":68,"x_max":543,"o":"m 92 581 q 68 678 68 627 q 147 870 68 791 q 339 949 227 949 l 543 949 l 543 814 l 339 814 q 243 774 283 814 q 204 690 208 739 q 305 712 250 712 q 473 643 404 712 q 543 475 543 573 q 518 369 543 417 q 543 271 543 322 q 463 79 543 159 q 271 0 384 0 l 68 0 l 68 136 l 271 136 q 368 176 328 136 q 406 259 403 211 q 305 237 360 237 q 137 307 207 237 q 68 475 68 376 q 92 581 68 532 m 305 373 q 377 403 347 373 q 407 475 407 433 q 377 547 407 517 q 305 576 347 576 q 233 547 263 576 q 203 475 203 517 q 233 403 203 433 q 305 373 263 373 z "},"¨":{"ha":475,"x_min":68,"x_max":407,"o":"m 203 814 l 68 814 l 68 949 l 203 949 l 203 814 m 407 814 l 271 814 l 271 949 l 407 949 l 407 814 z "},"©":{"ha":1085,"x_min":68,"x_max":1017,"o":"m 543 814 q 303 714 402 814 q 203 475 203 615 q 303 235 203 334 q 543 136 402 136 q 782 235 683 136 q 882 475 882 334 q 782 714 882 615 q 543 814 683 814 m 563 678 l 631 678 l 631 543 l 563 543 q 515 523 535 543 q 495 475 495 503 q 515 427 495 447 q 563 407 535 407 l 631 407 l 631 271 l 563 271 q 419 331 479 271 q 359 475 359 391 q 419 618 359 559 q 563 678 479 678 m 543 0 q 207 139 346 0 q 68 475 68 278 q 207 810 68 671 q 543 949 346 949 q 878 810 739 949 q 1017 475 1017 671 q 878 139 1017 278 q 543 0 739 0 z "},"ª":{"ha":471,"x_min":34,"x_max":437,"o":"m 34 403 l 213 972 l 258 972 l 437 403 l 347 403 q 235 525 302 525 q 123 403 168 525 l 34 403 m 235 769 l 168 566 q 302 566 235 606 l 235 769 m 354 132 l 117 132 l 117 267 l 354 267 l 354 132 z "},"«":{"ha":1028,"x_min":68,"x_max":960,"o":"m 543 170 l 68 403 l 68 553 l 543 787 l 543 635 l 222 478 l 543 321 l 543 170 m 960 170 l 486 403 l 486 553 l 960 787 l 960 635 l 640 478 l 960 321 l 960 170 z "},"¬":{"ha":543,"x_min":68,"x_max":475,"o":"m 339 475 l 68 475 l 68 610 l 475 610 l 475 339 l 339 339 l 339 475 z "},"®":{"ha":1085,"x_min":68,"x_max":1017,"o":"m 529 543 l 529 475 q 597 509 597 475 q 529 543 597 543 m 529 339 l 529 271 l 393 271 l 393 678 l 529 678 q 732 509 732 678 q 658 366 732 406 l 705 271 l 570 271 l 536 339 l 529 339 m 543 814 q 303 714 402 814 q 203 475 203 615 q 303 235 203 334 q 543 136 402 136 q 782 235 683 136 q 882 475 882 334 q 782 714 882 615 q 543 814 683 814 m 543 0 q 207 139 346 0 q 68 475 68 278 q 207 810 68 671 q 543 949 346 949 q 878 810 739 949 q 1017 475 1017 671 q 878 139 1017 278 q 543 0 739 0 z "},"¯":{"ha":610,"x_min":68,"x_max":543,"o":"m 543 814 l 68 814 l 68 949 l 543 949 l 543 814 z "},"°":{"ha":543,"x_min":68,"x_max":475,"o":"m 271 543 q 127 602 187 543 q 68 746 68 662 q 127 890 68 830 q 271 949 187 949 q 415 890 355 949 q 475 746 475 830 q 415 602 475 662 q 271 543 355 543 m 271 678 q 319 698 299 678 q 339 746 339 718 q 319 794 339 774 q 271 814 299 814 q 223 794 243 814 q 203 746 203 774 q 223 698 203 718 q 271 678 243 678 z "},"±":{"ha":688,"x_min":0,"x_max":0,"o":""},"²":{"ha":610,"x_min":34,"x_max":543,"o":"m 271 814 l 68 814 l 68 949 l 271 949 q 463 870 384 949 q 543 678 543 791 q 273 136 543 583 l 543 136 l 543 0 l 34 0 q 407 678 407 610 q 367 774 407 734 q 271 814 328 814 z "},"³":{"ha":678,"x_min":68,"x_max":610,"o":"m 271 0 l 68 0 l 68 136 l 271 136 q 415 195 355 136 q 475 339 475 255 q 415 483 475 423 q 271 543 355 543 l 79 543 l 273 814 l 68 814 l 68 949 l 536 949 l 338 672 q 511 579 436 654 q 610 339 610 479 q 511 99 610 199 q 271 0 412 0 z "},"´":{"ha":475,"x_min":68,"x_max":407,"o":"m 68 678 l 217 949 l 407 949 l 210 678 l 68 678 z "},"µ":{"ha":747,"x_min":64,"x_max":682,"o":"m 68 943 l 64 949 l 216 949 l 373 629 l 530 949 l 682 949 l 678 943 l 678 0 l 543 0 l 543 666 l 373 321 l 203 666 l 203 0 l 68 0 l 68 943 z "},"¶":{"ha":882,"x_min":68,"x_max":814,"o":"m 610 814 l 610 0 l 475 0 l 475 203 l 441 203 q 177 313 286 203 q 68 576 68 422 q 177 840 68 731 q 441 949 286 949 l 814 949 l 814 0 l 678 0 l 678 814 l 610 814 z "},"·":{"ha":271,"x_min":68,"x_max":203,"o":"m 203 407 l 68 407 l 68 543 l 203 543 l 203 407 z "},"∙":{"ha":271,"x_min":68,"x_max":203,"o":"m 203 407 l 68 407 l 68 543 l 203 543 l 203 407 z "},"¸":{"ha":610,"x_min":68,"x_max":543,"o":"m 305 203 q 473 134 404 203 q 543 -34 543 64 q 473 -202 543 -132 q 305 -271 404 -271 q 137 -202 207 -271 q 68 -34 68 -132 l 203 -34 q 233 -106 203 -76 q 305 -136 263 -136 q 377 -106 347 -136 q 407 -34 407 -76 q 377 38 407 8 q 305 68 347 68 l 305 203 z "},"¹":{"ha":407,"x_min":68,"x_max":339,"o":"m 339 0 l 203 0 l 203 814 l 68 814 l 68 949 l 339 949 l 339 0 z "},"º":{"ha":762,"x_min":68,"x_max":694,"o":"m 381 891 q 223 831 288 891 q 157 688 157 772 q 223 544 157 603 q 381 484 288 484 q 539 544 474 484 q 605 688 605 603 q 539 831 605 772 q 381 891 474 891 m 381 403 q 160 486 251 403 q 68 688 68 570 q 160 889 68 806 q 381 972 251 972 q 603 889 511 972 q 694 688 694 806 q 603 486 694 570 q 381 403 511 403 m 500 132 l 262 132 l 262 267 l 500 267 l 500 132 z "},"»":{"ha":1028,"x_min":68,"x_max":960,"o":"m 68 170 l 68 321 l 389 478 l 68 635 l 68 787 l 543 553 l 543 403 l 68 170 m 486 170 l 486 321 l 806 478 l 486 635 l 486 787 l 960 553 l 960 403 l 486 170 z "},"¿":{"ha":678,"x_min":68,"x_max":610,"o":"m 407 -119 l 610 -119 l 610 -255 l 407 -255 q 167 -156 267 -255 q 68 84 68 -56 q 167 324 68 224 q 407 423 267 423 l 610 423 l 610 288 l 407 288 q 263 228 323 288 q 203 84 203 168 q 263 -60 203 0 q 407 -119 323 -119 m 475 694 l 610 694 l 610 559 l 475 559 l 475 694 z "},"À":{"ha":678,"x_min":34,"x_max":644,"o":"m 34 0 l 305 949 l 373 949 l 644 0 l 509 0 q 339 203 441 203 q 170 0 237 203 l 34 0 m 339 610 l 237 271 q 441 271 339 339 l 339 610 m 475 1017 l 332 1017 l 136 1289 l 326 1289 l 475 1017 z "},"Á":{"ha":678,"x_min":34,"x_max":644,"o":"m 34 0 l 305 949 l 373 949 l 644 0 l 509 0 q 339 203 441 203 q 170 0 237 203 l 34 0 m 339 610 l 237 271 q 441 271 339 339 l 339 610 m 203 1017 l 353 1289 l 543 1289 l 346 1017 l 203 1017 z "},"Â":{"ha":678,"x_min":34,"x_max":644,"o":"m 34 0 l 305 949 l 373 949 l 644 0 l 509 0 q 339 203 441 203 q 170 0 237 203 l 34 0 m 339 610 l 237 271 q 441 271 339 339 l 339 610 m 441 1289 l 576 1017 l 414 1017 l 339 1194 l 264 1017 l 102 1017 l 237 1289 l 441 1289 z "},"Ã":{"ha":678,"x_min":34,"x_max":644,"o":"m 34 0 l 305 949 l 373 949 l 644 0 l 509 0 q 339 203 441 203 q 170 0 237 203 l 34 0 m 339 610 l 237 271 q 441 271 339 339 l 339 610 m 237 1126 q 190 1017 190 1126 l 68 1017 q 237 1289 68 1289 q 339 1234 278 1289 q 441 1180 400 1180 q 488 1289 488 1180 l 610 1289 q 441 1017 610 1017 q 339 1072 400 1017 q 237 1126 278 1126 z "},"Ä":{"ha":678,"x_min":34,"x_max":644,"o":"m 34 0 l 305 949 l 373 949 l 644 0 l 509 0 q 339 203 441 203 q 170 0 237 203 l 34 0 m 339 610 l 237 271 q 441 271 339 339 l 339 610 m 305 1051 l 170 1051 l 170 1187 l 305 1187 l 305 1051 m 509 1051 l 373 1051 l 373 1187 l 509 1187 l 509 1051 z "},"Å":{"ha":678,"x_min":34,"x_max":644,"o":"m 339 610 l 237 271 q 441 271 339 339 l 339 610 m 339 949 q 387 969 367 949 q 407 1017 407 989 q 387 1065 407 1045 q 339 1085 367 1085 q 291 1065 311 1085 q 271 1017 271 1045 q 291 969 271 989 q 339 949 311 949 m 408 825 l 644 0 l 509 0 q 339 203 441 203 q 170 0 237 203 l 34 0 l 270 825 q 195 873 229 840 q 136 1017 136 933 q 195 1161 136 1101 q 339 1221 255 1221 q 483 1161 423 1221 q 543 1017 543 1101 q 483 873 543 933 q 408 825 450 840 z "},"Æ":{"ha":1085,"x_min":34,"x_max":1017,"o":"m 339 610 l 237 271 q 441 271 339 339 l 339 610 m 509 0 q 339 203 441 203 q 170 0 237 203 l 34 0 l 305 949 l 373 949 l 543 356 l 543 949 l 1017 949 l 1017 814 l 678 814 l 678 543 l 949 543 l 949 407 l 678 407 l 678 136 l 1017 136 l 1017 0 l 509 0 z "},"Ç":{"ha":678,"x_min":68,"x_max":610,"o":"m 319 54 q 207 139 259 87 q 68 475 68 278 q 207 810 68 671 q 543 949 346 949 l 610 949 l 610 814 l 543 814 q 303 714 402 814 q 203 475 203 615 q 303 235 203 334 q 543 136 402 136 l 610 136 l 610 0 l 543 0 q 449 8 494 0 l 423 -51 q 499 -152 524 -51 q 372 -253 473 -253 l 322 -152 q 372 -126 372 -152 q 271 -101 372 -101 l 319 54 z "},"È":{"ha":610,"x_min":68,"x_max":543,"o":"m 543 949 l 543 814 l 203 814 l 203 543 l 475 543 l 475 407 l 203 407 l 203 136 l 543 136 l 543 0 l 68 0 l 68 949 l 543 949 m 407 1017 l 264 1017 l 68 1289 l 258 1289 l 407 1017 z "},"É":{"ha":610,"x_min":68,"x_max":543,"o":"m 543 949 l 543 814 l 203 814 l 203 543 l 475 543 l 475 407 l 203 407 l 203 136 l 543 136 l 543 0 l 68 0 l 68 949 l 543 949 m 136 1017 l 285 1289 l 475 1289 l 278 1017 l 136 1017 z "},"Ê":{"ha":610,"x_min":68,"x_max":543,"o":"m 543 949 l 543 814 l 203 814 l 203 543 l 475 543 l 475 407 l 203 407 l 203 136 l 543 136 l 543 0 l 68 0 l 68 949 l 543 949 m 407 1289 l 543 1017 l 380 1017 l 305 1194 l 231 1017 l 68 1017 l 203 1289 l 407 1289 z "},"Ë":{"ha":610,"x_min":68,"x_max":543,"o":"m 543 949 l 543 814 l 203 814 l 203 543 l 475 543 l 475 407 l 203 407 l 203 136 l 543 136 l 543 0 l 68 0 l 68 949 l 543 949 m 271 1051 l 136 1051 l 136 1187 l 271 1187 l 271 1051 m 475 1051 l 339 1051 l 339 1187 l 475 1187 l 475 1051 z "},"Ì":{"ha":543,"x_min":68,"x_max":475,"o":"m 475 949 l 475 814 l 339 814 l 339 136 l 475 136 l 475 0 l 68 0 l 68 136 l 203 136 l 203 814 l 68 814 l 68 949 l 475 949 m 407 1017 l 264 1017 l 68 1289 l 258 1289 l 407 1017 z "},"Í":{"ha":543,"x_min":68,"x_max":475,"o":"m 475 949 l 475 814 l 339 814 l 339 136 l 475 136 l 475 0 l 68 0 l 68 136 l 203 136 l 203 814 l 68 814 l 68 949 l 475 949 m 136 1017 l 285 1289 l 475 1289 l 278 1017 l 136 1017 z "},"Î":{"ha":543,"x_min":34,"x_max":509,"o":"m 475 949 l 475 814 l 339 814 l 339 136 l 475 136 l 475 0 l 68 0 l 68 136 l 203 136 l 203 814 l 68 814 l 68 949 l 475 949 m 373 1289 l 509 1017 l 346 1017 l 271 1194 l 197 1017 l 34 1017 l 170 1289 l 373 1289 z "},"Ï":{"ha":543,"x_min":68,"x_max":475,"o":"m 475 949 l 475 814 l 339 814 l 339 136 l 475 136 l 475 0 l 68 0 l 68 136 l 203 136 l 203 814 l 68 814 l 68 949 l 475 949 m 441 1051 l 305 1051 l 305 1187 l 441 1187 l 441 1051 m 237 1051 l 102 1051 l 102 1187 l 237 1187 l 237 1051 z "},"Ð":{"ha":882,"x_min":68,"x_max":814,"o":"m 339 136 q 579 235 479 136 q 678 475 678 334 q 579 714 678 615 q 339 814 479 814 l 339 543 l 475 543 l 475 407 l 339 407 l 339 136 m 339 949 q 675 810 536 949 q 814 475 814 671 q 675 139 814 278 q 339 0 536 0 l 203 0 l 203 407 l 68 407 l 68 543 l 203 543 l 203 949 l 339 949 z "},"Ñ":{"ha":678,"x_min":68,"x_max":610,"o":"m 68 0 l 68 949 l 136 949 l 475 407 l 475 949 l 610 949 l 610 0 l 543 0 l 203 543 l 203 0 l 68 0 m 237 1126 q 190 1017 190 1126 l 68 1017 q 237 1289 68 1289 q 339 1234 278 1289 q 441 1180 400 1180 q 488 1289 488 1180 l 610 1289 q 441 1017 610 1017 q 339 1072 400 1017 q 237 1126 278 1126 z "},"Ò":{"ha":1085,"x_min":68,"x_max":1017,"o":"m 543 814 q 303 714 402 814 q 203 475 203 615 q 303 235 203 334 q 543 136 402 136 q 782 235 683 136 q 882 475 882 334 q 782 714 882 615 q 543 814 683 814 m 543 0 q 207 139 346 0 q 68 475 68 278 q 207 810 68 671 q 543 949 346 949 q 878 810 739 949 q 1017 475 1017 671 q 878 139 1017 278 q 543 0 739 0 m 678 1017 l 536 1017 l 339 1289 l 529 1289 l 678 1017 z "},"Ó":{"ha":1085,"x_min":68,"x_max":1017,"o":"m 543 814 q 303 714 402 814 q 203 475 203 615 q 303 235 203 334 q 543 136 402 136 q 782 235 683 136 q 882 475 882 334 q 782 714 882 615 q 543 814 683 814 m 543 0 q 207 139 346 0 q 68 475 68 278 q 207 810 68 671 q 543 949 346 949 q 878 810 739 949 q 1017 475 1017 671 q 878 139 1017 278 q 543 0 739 0 m 407 1017 l 556 1289 l 746 1289 l 549 1017 l 407 1017 z "},"Ô":{"ha":1085,"x_min":68,"x_max":1017,"o":"m 543 814 q 303 714 402 814 q 203 475 203 615 q 303 235 203 334 q 543 136 402 136 q 782 235 683 136 q 882 475 882 334 q 782 714 882 615 q 543 814 683 814 m 543 0 q 207 139 346 0 q 68 475 68 278 q 207 810 68 671 q 543 949 346 949 q 878 810 739 949 q 1017 475 1017 671 q 878 139 1017 278 q 543 0 739 0 m 644 1289 l 780 1017 l 617 1017 l 543 1194 l 468 1017 l 305 1017 l 441 1289 l 644 1289 z "},"Õ":{"ha":1085,"x_min":68,"x_max":1017,"o":"m 543 814 q 303 714 402 814 q 203 475 203 615 q 303 235 203 334 q 543 136 402 136 q 782 235 683 136 q 882 475 882 334 q 782 714 882 615 q 543 814 683 814 m 543 0 q 207 139 346 0 q 68 475 68 278 q 207 810 68 671 q 543 949 346 949 q 878 810 739 949 q 1017 475 1017 671 q 878 139 1017 278 q 543 0 739 0 m 441 1126 q 393 1017 393 1126 l 271 1017 q 441 1289 271 1289 q 543 1234 481 1289 q 644 1180 604 1180 q 692 1289 692 1180 l 814 1289 q 644 1017 814 1017 q 543 1072 604 1017 q 441 1126 481 1126 z "},"Ö":{"ha":1085,"x_min":68,"x_max":1017,"o":"m 543 814 q 303 714 402 814 q 203 475 203 615 q 303 235 203 334 q 543 136 402 136 q 782 235 683 136 q 882 475 882 334 q 782 714 882 615 q 543 814 683 814 m 543 0 q 207 139 346 0 q 68 475 68 278 q 207 810 68 671 q 543 949 346 949 q 878 810 739 949 q 1017 475 1017 671 q 878 139 1017 278 q 543 0 739 0 m 509 1051 l 373 1051 l 373 1187 l 509 1187 l 509 1051 m 712 1051 l 576 1051 l 576 1187 l 712 1187 l 712 1051 z "},"×":{"ha":678,"x_min":31,"x_max":648,"o":"m 648 949 l 414 475 l 648 0 l 496 0 l 339 321 l 182 0 l 31 0 l 264 475 l 31 949 l 182 949 l 339 629 l 496 949 l 648 949 z "},"Ø":{"ha":1085,"x_min":68,"x_max":1017,"o":"m 811 867 q 878 810 846 842 q 1017 475 1017 671 q 878 139 1017 278 q 543 0 739 0 q 396 22 465 0 l 385 0 l 234 0 l 274 82 q 207 139 239 107 q 68 475 68 278 q 207 810 68 671 q 543 949 346 949 q 689 928 621 949 l 700 949 l 851 949 l 811 867 m 335 206 l 628 804 q 543 814 587 814 q 303 714 402 814 q 203 475 203 615 q 303 235 203 334 q 335 206 319 219 m 750 743 l 457 146 q 543 136 498 136 q 782 235 683 136 q 882 475 882 334 q 783 715 882 615 q 750 743 766 730 z "},"Ù":{"ha":678,"x_min":68,"x_max":610,"o":"m 68 271 l 68 949 l 203 949 l 203 271 q 243 175 203 215 q 339 136 283 136 q 435 175 395 136 q 475 271 475 215 l 475 949 l 610 949 l 610 271 q 531 79 610 159 q 339 0 452 0 q 147 79 227 0 q 68 271 68 159 m 475 1017 l 332 1017 l 136 1289 l 326 1289 l 475 1017 z "},"Ú":{"ha":678,"x_min":68,"x_max":610,"o":"m 68 271 l 68 949 l 203 949 l 203 271 q 243 175 203 215 q 339 136 283 136 q 435 175 395 136 q 475 271 475 215 l 475 949 l 610 949 l 610 271 q 531 79 610 159 q 339 0 452 0 q 147 79 227 0 q 68 271 68 159 m 203 1017 l 353 1289 l 543 1289 l 346 1017 l 203 1017 z "},"Û":{"ha":678,"x_min":68,"x_max":610,"o":"m 68 271 l 68 949 l 203 949 l 203 271 q 243 175 203 215 q 339 136 283 136 q 435 175 395 136 q 475 271 475 215 l 475 949 l 610 949 l 610 271 q 531 79 610 159 q 339 0 452 0 q 147 79 227 0 q 68 271 68 159 m 441 1289 l 576 1017 l 414 1017 l 339 1194 l 264 1017 l 102 1017 l 237 1289 l 441 1289 z "},"Ü":{"ha":678,"x_min":68,"x_max":610,"o":"m 68 271 l 68 949 l 203 949 l 203 271 q 243 175 203 215 q 339 136 283 136 q 435 175 395 136 q 475 271 475 215 l 475 949 l 610 949 l 610 271 q 531 79 610 159 q 339 0 452 0 q 147 79 227 0 q 68 271 68 159 m 305 1051 l 170 1051 l 170 1187 l 305 1187 l 305 1051 m 509 1051 l 373 1051 l 373 1187 l 509 1187 l 509 1051 z "},"Ý":{"ha":678,"x_min":31,"x_max":648,"o":"m 271 459 l 31 949 l 182 949 l 339 629 l 496 949 l 648 949 l 407 459 l 407 0 l 271 0 l 271 459 m 203 1017 l 353 1289 l 543 1289 l 346 1017 l 203 1017 z "},"Þ":{"ha":678,"x_min":68,"x_max":610,"o":"m 68 949 l 203 949 l 203 814 l 271 814 q 511 714 412 814 q 610 475 610 615 q 511 235 610 334 q 271 136 412 136 l 203 136 l 203 0 l 68 0 l 68 949 m 203 678 l 203 271 l 271 271 q 415 331 355 271 q 475 475 475 391 q 415 618 475 559 q 271 678 355 678 l 203 678 z "},"ß":{"ha":814,"x_min":68,"x_max":746,"o":"m 407 407 q 551 467 491 407 q 610 610 610 526 q 551 754 610 694 q 407 814 491 814 q 263 754 323 814 q 203 610 203 694 l 203 0 l 68 0 l 68 610 q 167 850 68 751 q 407 949 267 949 q 647 850 547 949 q 746 610 746 751 q 647 371 746 470 q 576 316 614 338 q 610 203 610 267 q 551 60 610 119 q 407 0 491 0 l 339 0 l 339 136 l 407 136 q 455 156 435 136 q 475 203 475 176 q 455 251 475 231 q 407 271 435 271 l 339 271 l 339 407 l 407 407 z "},"à":{"ha":678,"x_min":34,"x_max":644,"o":"m 34 0 l 305 949 l 373 949 l 644 0 l 509 0 q 339 203 441 203 q 170 0 237 203 l 34 0 m 339 610 l 237 271 q 441 271 339 339 l 339 610 m 475 1017 l 332 1017 l 136 1289 l 326 1289 l 475 1017 z "},"á":{"ha":678,"x_min":34,"x_max":644,"o":"m 34 0 l 305 949 l 373 949 l 644 0 l 509 0 q 339 203 441 203 q 170 0 237 203 l 34 0 m 339 610 l 237 271 q 441 271 339 339 l 339 610 m 203 1017 l 353 1289 l 543 1289 l 346 1017 l 203 1017 z "},"â":{"ha":678,"x_min":34,"x_max":644,"o":"m 34 0 l 305 949 l 373 949 l 644 0 l 509 0 q 339 203 441 203 q 170 0 237 203 l 34 0 m 339 610 l 237 271 q 441 271 339 339 l 339 610 m 441 1289 l 576 1017 l 414 1017 l 339 1194 l 264 1017 l 102 1017 l 237 1289 l 441 1289 z "},"ã":{"ha":678,"x_min":34,"x_max":644,"o":"m 34 0 l 305 949 l 373 949 l 644 0 l 509 0 q 339 203 441 203 q 170 0 237 203 l 34 0 m 339 610 l 237 271 q 441 271 339 339 l 339 610 m 237 1126 q 190 1017 190 1126 l 68 1017 q 237 1289 68 1289 q 339 1234 278 1289 q 441 1180 400 1180 q 488 1289 488 1180 l 610 1289 q 441 1017 610 1017 q 339 1072 400 1017 q 237 1126 278 1126 z "},"ä":{"ha":678,"x_min":34,"x_max":644,"o":"m 34 0 l 305 949 l 373 949 l 644 0 l 509 0 q 339 203 441 203 q 170 0 237 203 l 34 0 m 339 610 l 237 271 q 441 271 339 339 l 339 610 m 305 1051 l 170 1051 l 170 1187 l 305 1187 l 305 1051 m 509 1051 l 373 1051 l 373 1187 l 509 1187 l 509 1051 z "},"å":{"ha":678,"x_min":34,"x_max":644,"o":"m 339 610 l 237 271 q 441 271 339 339 l 339 610 m 339 949 q 387 969 367 949 q 407 1017 407 989 q 387 1065 407 1045 q 339 1085 367 1085 q 291 1065 311 1085 q 271 1017 271 1045 q 291 969 271 989 q 339 949 311 949 m 408 825 l 644 0 l 509 0 q 339 203 441 203 q 170 0 237 203 l 34 0 l 270 825 q 195 873 229 840 q 136 1017 136 933 q 195 1161 136 1101 q 339 1221 255 1221 q 483 1161 423 1221 q 543 1017 543 1101 q 483 873 543 933 q 408 825 450 840 z "},"æ":{"ha":1085,"x_min":34,"x_max":1017,"o":"m 339 610 l 237 271 q 441 271 339 339 l 339 610 m 509 0 q 339 203 441 203 q 170 0 237 203 l 34 0 l 305 949 l 373 949 l 543 356 l 543 949 l 1017 949 l 1017 814 l 678 814 l 678 543 l 949 543 l 949 407 l 678 407 l 678 136 l 1017 136 l 1017 0 l 509 0 z "},"ç":{"ha":678,"x_min":68,"x_max":610,"o":"m 319 54 q 207 139 259 87 q 68 475 68 278 q 207 810 68 671 q 543 949 346 949 l 610 949 l 610 814 l 543 814 q 303 714 402 814 q 203 475 203 615 q 303 235 203 334 q 543 136 402 136 l 610 136 l 610 0 l 543 0 q 449 8 494 0 l 423 -51 q 499 -152 524 -51 q 372 -253 473 -253 l 322 -152 q 372 -126 372 -152 q 271 -101 372 -101 l 319 54 z "},"è":{"ha":610,"x_min":68,"x_max":543,"o":"m 543 949 l 543 814 l 203 814 l 203 543 l 475 543 l 475 407 l 203 407 l 203 136 l 543 136 l 543 0 l 68 0 l 68 949 l 543 949 m 407 1017 l 264 1017 l 68 1289 l 258 1289 l 407 1017 z "},"é":{"ha":610,"x_min":68,"x_max":543,"o":"m 543 949 l 543 814 l 203 814 l 203 543 l 475 543 l 475 407 l 203 407 l 203 136 l 543 136 l 543 0 l 68 0 l 68 949 l 543 949 m 136 1017 l 285 1289 l 475 1289 l 278 1017 l 136 1017 z "},"ê":{"ha":610,"x_min":68,"x_max":543,"o":"m 543 949 l 543 814 l 203 814 l 203 543 l 475 543 l 475 407 l 203 407 l 203 136 l 543 136 l 543 0 l 68 0 l 68 949 l 543 949 m 407 1289 l 543 1017 l 380 1017 l 305 1194 l 231 1017 l 68 1017 l 203 1289 l 407 1289 z "},"ë":{"ha":610,"x_min":68,"x_max":543,"o":"m 543 949 l 543 814 l 203 814 l 203 543 l 475 543 l 475 407 l 203 407 l 203 136 l 543 136 l 543 0 l 68 0 l 68 949 l 543 949 m 271 1051 l 136 1051 l 136 1187 l 271 1187 l 271 1051 m 475 1051 l 339 1051 l 339 1187 l 475 1187 l 475 1051 z "},"ì":{"ha":543,"x_min":68,"x_max":475,"o":"m 475 949 l 475 814 l 339 814 l 339 136 l 475 136 l 475 0 l 68 0 l 68 136 l 203 136 l 203 814 l 68 814 l 68 949 l 475 949 m 407 1017 l 264 1017 l 68 1289 l 258 1289 l 407 1017 z "},"í":{"ha":543,"x_min":68,"x_max":475,"o":"m 475 949 l 475 814 l 339 814 l 339 136 l 475 136 l 475 0 l 68 0 l 68 136 l 203 136 l 203 814 l 68 814 l 68 949 l 475 949 m 136 1017 l 285 1289 l 475 1289 l 278 1017 l 136 1017 z "},"î":{"ha":543,"x_min":34,"x_max":509,"o":"m 475 949 l 475 814 l 339 814 l 339 136 l 475 136 l 475 0 l 68 0 l 68 136 l 203 136 l 203 814 l 68 814 l 68 949 l 475 949 m 373 1289 l 509 1017 l 346 1017 l 271 1194 l 197 1017 l 34 1017 l 170 1289 l 373 1289 z "},"ï":{"ha":543,"x_min":68,"x_max":475,"o":"m 475 949 l 475 814 l 339 814 l 339 136 l 475 136 l 475 0 l 68 0 l 68 136 l 203 136 l 203 814 l 68 814 l 68 949 l 475 949 m 441 1051 l 305 1051 l 305 1187 l 441 1187 l 441 1051 m 237 1051 l 102 1051 l 102 1187 l 237 1187 l 237 1051 z "},"ð":{"ha":882,"x_min":68,"x_max":814,"o":"m 339 136 q 579 235 479 136 q 678 475 678 334 q 579 714 678 615 q 339 814 479 814 l 339 543 l 475 543 l 475 407 l 339 407 l 339 136 m 339 949 q 675 810 536 949 q 814 475 814 671 q 675 139 814 278 q 339 0 536 0 l 203 0 l 203 407 l 68 407 l 68 543 l 203 543 l 203 949 l 339 949 z "},"ñ":{"ha":678,"x_min":68,"x_max":610,"o":"m 68 0 l 68 949 l 136 949 l 475 407 l 475 949 l 610 949 l 610 0 l 543 0 l 203 543 l 203 0 l 68 0 m 237 1126 q 190 1017 190 1126 l 68 1017 q 237 1289 68 1289 q 339 1234 278 1289 q 441 1180 400 1180 q 488 1289 488 1180 l 610 1289 q 441 1017 610 1017 q 339 1072 400 1017 q 237 1126 278 1126 z "},"ò":{"ha":1085,"x_min":68,"x_max":1017,"o":"m 543 814 q 303 714 402 814 q 203 475 203 615 q 303 235 203 334 q 543 136 402 136 q 782 235 683 136 q 882 475 882 334 q 782 714 882 615 q 543 814 683 814 m 543 0 q 207 139 346 0 q 68 475 68 278 q 207 810 68 671 q 543 949 346 949 q 878 810 739 949 q 1017 475 1017 671 q 878 139 1017 278 q 543 0 739 0 m 678 1017 l 536 1017 l 339 1289 l 529 1289 l 678 1017 z "},"ó":{"ha":1085,"x_min":68,"x_max":1017,"o":"m 543 814 q 303 714 402 814 q 203 475 203 615 q 303 235 203 334 q 543 136 402 136 q 782 235 683 136 q 882 475 882 334 q 782 714 882 615 q 543 814 683 814 m 543 0 q 207 139 346 0 q 68 475 68 278 q 207 810 68 671 q 543 949 346 949 q 878 810 739 949 q 1017 475 1017 671 q 878 139 1017 278 q 543 0 739 0 m 407 1017 l 556 1289 l 746 1289 l 549 1017 l 407 1017 z "},"ô":{"ha":1085,"x_min":68,"x_max":1017,"o":"m 543 814 q 303 714 402 814 q 203 475 203 615 q 303 235 203 334 q 543 136 402 136 q 782 235 683 136 q 882 475 882 334 q 782 714 882 615 q 543 814 683 814 m 543 0 q 207 139 346 0 q 68 475 68 278 q 207 810 68 671 q 543 949 346 949 q 878 810 739 949 q 1017 475 1017 671 q 878 139 1017 278 q 543 0 739 0 m 644 1289 l 780 1017 l 617 1017 l 543 1194 l 468 1017 l 305 1017 l 441 1289 l 644 1289 z "},"õ":{"ha":1085,"x_min":68,"x_max":1017,"o":"m 543 814 q 303 714 402 814 q 203 475 203 615 q 303 235 203 334 q 543 136 402 136 q 782 235 683 136 q 882 475 882 334 q 782 714 882 615 q 543 814 683 814 m 543 0 q 207 139 346 0 q 68 475 68 278 q 207 810 68 671 q 543 949 346 949 q 878 810 739 949 q 1017 475 1017 671 q 878 139 1017 278 q 543 0 739 0 m 441 1126 q 393 1017 393 1126 l 271 1017 q 441 1289 271 1289 q 543 1234 481 1289 q 644 1180 604 1180 q 692 1289 692 1180 l 814 1289 q 644 1017 814 1017 q 543 1072 604 1017 q 441 1126 481 1126 z "},"ö":{"ha":1085,"x_min":68,"x_max":1017,"o":"m 543 814 q 303 714 402 814 q 203 475 203 615 q 303 235 203 334 q 543 136 402 136 q 782 235 683 136 q 882 475 882 334 q 782 714 882 615 q 543 814 683 814 m 543 0 q 207 139 346 0 q 68 475 68 278 q 207 810 68 671 q 543 949 346 949 q 878 810 739 949 q 1017 475 1017 671 q 878 139 1017 278 q 543 0 739 0 m 509 1051 l 373 1051 l 373 1187 l 509 1187 l 509 1051 m 712 1051 l 576 1051 l 576 1187 l 712 1187 l 712 1051 z "},"÷":{"ha":678,"x_min":31,"x_max":648,"o":"m 648 949 l 182 0 l 31 0 l 496 949 l 648 949 z "},"ø":{"ha":1085,"x_min":68,"x_max":1017,"o":"m 811 867 q 878 810 846 842 q 1017 475 1017 671 q 878 139 1017 278 q 543 0 739 0 q 396 22 465 0 l 385 0 l 234 0 l 274 82 q 207 139 239 107 q 68 475 68 278 q 207 810 68 671 q 543 949 346 949 q 689 928 621 949 l 700 949 l 851 949 l 811 867 m 335 206 l 628 804 q 543 814 587 814 q 303 714 402 814 q 203 475 203 615 q 303 235 203 334 q 335 206 319 219 m 750 743 l 457 146 q 543 136 498 136 q 782 235 683 136 q 882 475 882 334 q 783 715 882 615 q 750 743 766 730 z "},"ù":{"ha":678,"x_min":68,"x_max":610,"o":"m 68 271 l 68 949 l 203 949 l 203 271 q 243 175 203 215 q 339 136 283 136 q 435 175 395 136 q 475 271 475 215 l 475 949 l 610 949 l 610 271 q 531 79 610 159 q 339 0 452 0 q 147 79 227 0 q 68 271 68 159 m 475 1017 l 332 1017 l 136 1289 l 326 1289 l 475 1017 z "},"ú":{"ha":678,"x_min":68,"x_max":610,"o":"m 68 271 l 68 949 l 203 949 l 203 271 q 243 175 203 215 q 339 136 283 136 q 435 175 395 136 q 475 271 475 215 l 475 949 l 610 949 l 610 271 q 531 79 610 159 q 339 0 452 0 q 147 79 227 0 q 68 271 68 159 m 203 1017 l 353 1289 l 543 1289 l 346 1017 l 203 1017 z "},"û":{"ha":678,"x_min":68,"x_max":610,"o":"m 68 271 l 68 949 l 203 949 l 203 271 q 243 175 203 215 q 339 136 283 136 q 435 175 395 136 q 475 271 475 215 l 475 949 l 610 949 l 610 271 q 531 79 610 159 q 339 0 452 0 q 147 79 227 0 q 68 271 68 159 m 441 1289 l 576 1017 l 414 1017 l 339 1194 l 264 1017 l 102 1017 l 237 1289 l 441 1289 z "},"ü":{"ha":678,"x_min":68,"x_max":610,"o":"m 68 271 l 68 949 l 203 949 l 203 271 q 243 175 203 215 q 339 136 283 136 q 435 175 395 136 q 475 271 475 215 l 475 949 l 610 949 l 610 271 q 531 79 610 159 q 339 0 452 0 q 147 79 227 0 q 68 271 68 159 m 305 1051 l 170 1051 l 170 1187 l 305 1187 l 305 1051 m 509 1051 l 373 1051 l 373 1187 l 509 1187 l 509 1051 z "},"ý":{"ha":678,"x_min":31,"x_max":648,"o":"m 271 459 l 31 949 l 182 949 l 339 629 l 496 949 l 648 949 l 407 459 l 407 0 l 271 0 l 271 459 m 203 1017 l 353 1289 l 543 1289 l 346 1017 l 203 1017 z "},"þ":{"ha":678,"x_min":68,"x_max":610,"o":"m 68 949 l 203 949 l 203 814 l 271 814 q 511 714 412 814 q 610 475 610 615 q 511 235 610 334 q 271 136 412 136 l 203 136 l 203 0 l 68 0 l 68 949 m 203 678 l 203 271 l 271 271 q 415 331 355 271 q 475 475 475 391 q 415 618 475 559 q 271 678 355 678 l 203 678 z "},"ÿ":{"ha":678,"x_min":31,"x_max":648,"o":"m 271 459 l 31 949 l 182 949 l 339 629 l 496 949 l 648 949 l 407 459 l 407 0 l 271 0 l 271 459 m 305 1051 l 170 1051 l 170 1187 l 305 1187 l 305 1051 m 509 1051 l 373 1051 l 373 1187 l 509 1187 l 509 1051 z "},"ı":{"ha":543,"x_min":68,"x_max":475,"o":"m 475 949 l 475 814 l 339 814 l 339 136 l 475 136 l 475 0 l 68 0 l 68 136 l 203 136 l 203 814 l 68 814 l 68 949 l 475 949 z "},"ˆ":{"ha":610,"x_min":68,"x_max":543,"o":"m 407 949 l 543 678 l 380 678 l 305 854 l 231 678 l 68 678 l 203 949 l 407 949 z "},"ˇ":{"ha":610,"x_min":68,"x_max":543,"o":"m 203 678 l 68 949 l 231 949 l 305 773 l 380 949 l 543 949 l 407 678 l 203 678 z "},"ˉ":{"ha":475,"x_min":68,"x_max":407,"o":"m 407 814 l 68 814 l 68 949 l 407 949 l 407 814 z "},"˘":{"ha":678,"x_min":68,"x_max":610,"o":"m 610 949 q 531 758 610 837 q 339 678 452 678 q 147 758 227 678 q 68 949 68 837 l 203 949 q 243 853 203 893 q 339 814 283 814 q 435 853 395 814 q 475 949 475 893 l 610 949 z "},"˙":{"ha":271,"x_min":68,"x_max":203,"o":"m 203 814 l 68 814 l 68 949 l 203 949 l 203 814 z "},"˚":{"ha":543,"x_min":68,"x_max":475,"o":"m 271 543 q 127 602 187 543 q 68 746 68 662 q 127 890 68 830 q 271 949 187 949 q 415 890 355 949 q 475 746 475 830 q 415 602 475 662 q 271 543 355 543 m 271 678 q 319 698 299 678 q 339 746 339 718 q 319 794 339 774 q 271 814 299 814 q 223 794 243 814 q 203 746 203 774 q 223 698 203 718 q 271 678 243 678 z "},"˛":{"ha":610,"x_min":68,"x_max":543,"o":"m 305 203 l 305 68 q 233 38 263 68 q 203 -34 203 8 q 233 -106 203 -76 q 305 -136 263 -136 q 377 -106 347 -136 q 407 -34 407 -76 l 543 -34 q 473 -202 543 -132 q 305 -271 404 -271 q 137 -202 207 -271 q 68 -34 68 -132 q 137 134 68 64 q 305 203 207 203 z "},"˜":{"ha":678,"x_min":68,"x_max":610,"o":"m 237 787 q 190 678 190 787 l 68 678 q 237 949 68 949 q 339 895 278 949 q 441 841 400 841 q 488 949 488 841 l 610 949 q 441 678 610 678 q 339 732 400 678 q 237 787 278 787 z "},"˝":{"ha":694,"x_min":-102,"x_max":576,"o":"m -102 678 l 47 949 l 237 949 l 41 678 l -102 678 m 237 678 l 387 949 l 576 949 l 380 678 l 237 678 z "},"–":{"ha":694,"x_min":54,"x_max":434,"o":"m 434 279 l 54 279 l 54 415 l 434 415 l 434 279 z "},"—":{"ha":1389,"x_min":109,"x_max":868,"o":"m 868 279 l 109 279 l 109 415 l 868 415 l 868 279 z "},"‘":{"ha":271,"x_min":68,"x_max":203,"o":"m 203 678 l 68 678 l 68 949 l 203 949 l 203 678 z "},"’":{"ha":271,"x_min":68,"x_max":203,"o":"m 203 678 l 68 678 l 68 949 l 203 949 l 203 678 z "},"‚":{"ha":271,"x_min":68,"x_max":203,"o":"m 203 -136 l 68 -136 l 68 136 l 203 136 l 203 -136 z "},"“":{"ha":475,"x_min":68,"x_max":407,"o":"m 203 678 l 68 678 l 68 949 l 203 949 l 203 678 m 407 678 l 271 678 l 271 949 l 407 949 l 407 678 z "},"”":{"ha":475,"x_min":68,"x_max":407,"o":"m 203 678 l 68 678 l 68 949 l 203 949 l 203 678 m 407 678 l 271 678 l 271 949 l 407 949 l 407 678 z "},"„":{"ha":475,"x_min":68,"x_max":407,"o":"m 203 -136 l 68 -136 l 68 136 l 203 136 l 203 -136 m 407 -136 l 271 -136 l 271 136 l 407 136 l 407 -136 z "},"†":{"ha":610,"x_min":68,"x_max":543,"o":"m 373 644 l 373 0 l 237 0 l 237 644 l 68 644 l 68 780 l 237 780 l 237 949 l 373 949 l 373 780 l 543 780 l 543 644 l 373 644 z "},"‡":{"ha":610,"x_min":68,"x_max":543,"o":"m 237 305 l 237 644 l 68 644 l 68 780 l 237 780 l 237 949 l 373 949 l 373 780 l 543 780 l 543 644 l 373 644 l 373 305 l 543 305 l 543 170 l 373 170 l 373 0 l 237 0 l 237 170 l 68 170 l 68 305 l 237 305 z "},"•":{"ha":271,"x_min":68,"x_max":203,"o":"m 203 407 l 68 407 l 68 543 l 203 543 l 203 407 z "},"…":{"ha":678,"x_min":68,"x_max":610,"o":"m 203 0 l 68 0 l 68 136 l 203 136 l 203 0 m 610 0 l 475 0 l 475 136 l 610 136 l 610 0 m 407 0 l 271 0 l 271 136 l 407 136 l 407 0 z "},"‹":{"ha":610,"x_min":68,"x_max":543,"o":"m 543 170 l 68 403 l 68 553 l 543 787 l 543 635 l 222 478 l 543 321 l 543 170 z "},"›":{"ha":610,"x_min":68,"x_max":543,"o":"m 68 170 l 68 321 l 389 478 l 68 635 l 68 787 l 543 553 l 543 403 l 68 170 z "},"₤":{"ha":610,"x_min":68,"x_max":543,"o":"m 407 949 l 543 949 l 543 814 l 407 814 q 311 774 351 814 q 271 678 271 734 q 281 543 271 652 l 475 543 l 475 407 l 295 407 q 324 136 307 294 l 543 136 l 543 0 l 68 0 l 68 136 l 189 136 q 159 407 171 294 l 68 407 l 68 543 l 146 543 q 136 678 136 652 q 215 870 136 791 q 407 949 294 949 z "},"€":{"ha":746,"x_min":68,"x_max":678,"o":"m 610 949 l 678 949 l 678 814 l 610 814 q 371 715 470 814 q 338 678 353 697 l 610 678 l 610 543 l 277 543 q 271 475 271 510 q 277 407 271 439 l 610 407 l 610 271 l 338 271 q 371 235 353 252 q 610 136 470 136 l 678 136 l 678 0 l 610 0 q 275 139 414 0 q 180 271 214 199 l 68 271 l 68 407 l 140 407 q 136 475 136 440 q 140 543 136 509 l 68 543 l 68 678 l 180 678 q 275 810 214 750 q 610 949 414 949 z "},"™":{"ha":624,"x_min":68,"x_max":559,"o":"m 205 918 l 205 593 l 144 593 l 144 918 l 68 918 l 68 972 l 281 972 l 281 918 l 205 918 m 283 970 l 281 972 l 349 972 l 420 844 l 491 972 l 559 972 l 557 970 l 557 593 l 496 593 l 496 859 l 420 721 l 344 860 l 344 593 l 283 593 l 283 970 z "},"Œ":{"ha":1424,"x_min":68,"x_max":1356,"o":"m 543 814 q 303 714 402 814 q 203 475 203 615 q 303 235 203 334 q 543 136 402 136 q 782 235 683 136 q 882 475 882 334 q 782 714 882 615 q 543 814 683 814 m 543 0 q 207 139 346 0 q 68 475 68 278 q 207 810 68 671 q 543 949 346 949 q 878 810 739 949 l 882 807 l 882 949 l 1356 949 l 1356 814 l 1017 814 l 1017 543 l 1289 543 l 1289 407 l 1017 407 l 1017 136 l 1356 136 l 1356 0 l 882 0 l 882 142 l 878 139 q 543 0 739 0 z "},"œ":{"ha":1424,"x_min":68,"x_max":1356,"o":"m 543 814 q 303 714 402 814 q 203 475 203 615 q 303 235 203 334 q 543 136 402 136 q 782 235 683 136 q 882 475 882 334 q 782 714 882 615 q 543 814 683 814 m 543 0 q 207 139 346 0 q 68 475 68 278 q 207 810 68 671 q 543 949 346 949 q 878 810 739 949 l 882 807 l 882 949 l 1356 949 l 1356 814 l 1017 814 l 1017 543 l 1289 543 l 1289 407 l 1017 407 l 1017 136 l 1356 136 l 1356 0 l 882 0 l 882 142 l 878 139 q 543 0 739 0 z "},"‰":{"ha":950,"x_min":31,"x_max":882,"o":"m 237 746 q 261 756 252 746 q 271 780 271 766 q 261 804 271 794 q 237 814 252 814 q 213 804 223 814 q 203 780 203 794 q 213 756 203 766 q 237 746 223 746 m 712 136 q 736 145 726 136 q 746 170 746 155 q 736 194 746 184 q 712 203 726 203 q 688 194 698 203 q 678 170 678 184 q 688 145 678 155 q 712 136 698 136 m 441 136 q 465 145 455 136 q 475 170 475 155 q 465 194 475 184 q 441 203 455 203 q 417 194 427 203 q 407 170 407 184 q 417 145 407 155 q 441 136 427 136 m 576 67 q 561 50 570 58 q 441 0 511 0 q 321 50 370 0 q 271 170 271 99 q 272 183 271 176 l 182 0 l 31 0 l 351 654 q 237 610 304 610 q 117 660 167 610 q 68 780 68 709 q 117 900 68 850 q 237 949 167 949 q 357 900 308 949 q 407 780 407 850 q 406 766 407 773 l 496 949 l 648 949 l 327 295 q 441 339 374 339 q 561 290 511 339 q 576 272 570 281 q 592 290 583 281 q 712 339 642 339 q 832 290 783 339 q 882 170 882 240 q 832 50 882 99 q 712 0 783 0 q 592 50 642 0 q 576 67 583 58 z "}}}
